Coordinates
version=1
nRows=12
nColumns=42
inDegrees=yes

Units are S.I. units (second, meters, Newtons, ...)
If the header above contains a line with 'inDegrees', this indicates whether rotational values are in degrees (yes) or radians (no).

endheader
time	pelvis_tilt	pelvis_list	pelvis_rotation	pelvis_tx	pelvis_ty	pelvis_tz	hip_flexion_r	hip_adduction_r	hip_rotation_r	knee_angle_r	knee_adduction_r	knee_angle_r_beta	ankle_angle_r	subtalar_angle_r	mtp_angle_r	hip_flexion_l	hip_adduction_l	hip_rotation_l	knee_angle_l	knee_adduction_l	knee_angle_l_beta	ankle_angle_l	subtalar_angle_l	mtp_angle_l	lumbar_extension	lumbar_bending	lumbar_rotation	arm_flex_r	arm_add_r	arm_rot_r	elbow_flex_r	pro_sup_r	wrist_flex_r	wrist_dev_r	arm_flex_l	arm_add_l	arm_rot_l	elbow_flex_l	pro_sup_l	wrist_flex_l	wrist_dev_l
      1.98000000	      3.19217164	      4.32564462	     13.70022704	      0.41623879	      0.89124268	      0.41804413	     18.68034759	    -14.65775011	    -15.18315577	     68.30586154	      0.75070001	      1.19216218	     -1.01380247	    -15.22581291	     -7.53330759	      5.59938421	     -4.02445346	    -10.87086295	     10.61024909	      8.42020546	      0.18518378	      8.79033906	     36.35861423	     -7.53330759	    -19.34134340	     -6.08712026	     -4.51895126	    -15.87011257	    -11.81038671	    -27.54384558	     92.06894763	     90.00000001	      0.00000000	      0.00000000	      0.38872462	    -24.28936271	     11.04416999	     91.35139696	     90.00000001	      0.00000000	      0.00000000
      1.99000000	      3.02647317	      4.35108334	     13.87463377	      0.41872960	      0.89121457	      0.41759650	     20.05611514	    -15.01220754	    -15.79807640	     67.49290226	      0.24725861	      1.17797337	      0.90253163	    -15.38810544	     -7.53210552	      5.69495019	     -4.02608691	    -10.92907842	     10.82217911	      8.47453208	      0.18888266	      8.94411432	     36.46758021	     -7.53210552	    -19.53728148	     -5.94688656	     -4.76940631	    -15.17602744	    -11.77942119	    -26.94013792	     89.53464891	     90.00000001	      0.00000000	      0.00000000	      1.05434404	    -24.78495009	     11.80963536	     90.65036296	     90.00000001	      0.00000000	      0.00000000
      2.00000000	      2.95917132	      4.38556697	     13.99375906	      0.42130999	      0.89133921	      0.41722241	     21.16177750	    -15.29914803	    -16.41147405	     66.18069123	     -0.17750612	      1.15507096	      2.67222343	    -15.62331496	     -7.53112170	      5.60977930	     -4.00350110	    -10.86823792	     10.88065855	      8.48499568	      0.18990332	      9.07983667	     36.57044556	     -7.53112170	    -19.84354740	     -5.76241580	     -4.89563905	    -14.71977166	    -11.69311457	    -26.34602992	     87.85939200	     90.00000001	      0.00000000	      0.00000000	      1.62851248	    -25.10913267	     12.23097296	     90.19527723	     90.00000001	      0.00000000	      0.00000000
      2.01000000	      2.86692481	      4.43263871	     14.10732197	      0.42387982	      0.89149537	      0.41682608	     22.13659315	    -15.50493368	    -16.91447175	     64.39718182	     -0.51701620	      1.12394285	      4.13231614	    -15.87359670	     -7.53052371	      5.51577930	     -3.93027759	    -10.71253906	     10.85171362	      8.48459150	      0.18939813	      9.21647403	     36.66165454	     -7.53052371	    -20.13384430	     -5.55332152	     -5.00730025	    -14.36514778	    -11.65064342	    -25.85365336	     86.64289213	     90.00000001	      0.00000000	      0.00000000	      2.13092034	    -25.26560514	     12.48936548	     89.91363802	     90.00000001	      0.00000000	      0.00000000
      2.02000000	      2.77077767	      4.41863158	     14.21776526	      0.42672488	      0.89165220	      0.41659048	     22.91140658	    -15.64503849	    -17.80306312	     62.12858271	     -0.97907920	      1.08434833	      5.65335645	    -15.18117609	     -7.52918886	      5.45508249	     -3.94258181	    -10.61198172	     10.89733165	      8.44413697	      0.19019432	      9.41481517	     36.65595442	     -7.52918886	    -20.31169464	     -5.34340128	     -5.07843432	    -13.71363195	    -11.76889500	    -24.85704541	     84.40977899	     90.00000001	      0.00000000	      0.00000000	      2.66458026	    -25.59954095	     13.12154681	     89.38852903	     90.00000001	      0.00000000	      0.00000000
      2.03000000	      2.68133319	      4.43796699	     14.36001363	      0.42957796	      0.89177935	      0.41636746	     23.47758904	    -15.71453702	    -18.55080941	     59.46931863	     -1.30917080	      1.03793541	      6.83652232	    -14.51295135	     -7.52789295	      5.37260473	     -3.92992482	    -10.41554904	     10.91337030	      8.45673560	      0.19047424	      9.59356216	     36.64974025	     -7.52789295	    -20.52065221	     -5.12341963	     -5.15321351	    -13.29295130	    -11.82570844	    -24.05383684	     82.91422234	     90.00000001	      0.00000000	      0.00000000	      3.12585160	    -25.80651628	     13.53095034	     89.13683120	     90.00000001	      0.00000000	      0.00000000
      2.04000000	      2.55601387	      4.48926067	     14.51520818	      0.43258553	      0.89179522	      0.41622057	     23.89059335	    -15.76857871	    -19.32149815	     56.49839271	     -1.59450869	      0.98608297	      7.75751489	    -13.38851551	     -7.52640419	      5.30150242	     -3.86815193	    -10.18057596	     10.89800336	      8.44999517	      0.19020604	      9.77500076	     36.65413365	     -7.52640419	    -20.66518418	     -4.95276375	     -5.21786225	    -12.93784112	    -11.89230981	    -23.22602163	     81.53057227	     90.00000001	      0.00000000	      0.00000000	      3.54495952	    -26.00135115	     13.93458925	     89.00416558	     90.00000001	      0.00000000	      0.00000000
      2.05000000	      2.42800055	      4.55789123	     14.69566469	      0.43575753	      0.89172640	      0.41616224	     24.09335657	    -15.77927281	    -20.11097316	     53.26519046	     -1.81811404	      0.92965295	      8.49264840	    -11.74057114	     -7.52459175	      5.22149675	     -3.80356235	     -9.95245619	     10.88686444	      8.45372624	      0.19001163	      9.96333253	     36.68092452	     -7.52459175	    -20.77667882	     -4.79489080	     -5.27919367	    -12.61579707	    -11.97396895	    -22.43116489	     80.33662472	     90.00000001	      0.00000000	      0.00000000	      3.89254195	    -26.18227989	     14.33455975	     88.97900118	     90.00000001	      0.00000000	      0.00000000
      2.06000000	      2.32743903	      4.64592731	     14.88527950	      0.43909142	      0.89161435	      0.41625340	     24.06574636	    -15.70030732	    -20.52721969	     49.86918554	     -1.73970338	      0.87038148	      8.65165119	    -10.52173373	     -7.52374211	      5.07638728	     -3.76666826	     -9.72530471	     10.84089778	      8.51680730	      0.18920936	     10.20527413	     36.67250107	     -7.52374211	    -20.89335974	     -4.66385042	     -5.30936233	    -12.37936835	    -11.94918630	    -21.89089851	     79.41937848	     90.00000001	      0.00000000	      0.00000000	      4.24023696	    -26.28947216	     14.60292341	     89.01323222	     90.00000001	      0.00000000	      0.00000000
      2.07000000	      2.15805368	      4.83084437	     15.15301458	      0.44267263	      0.89129428	      0.41635450	     23.96106189	    -15.79499363	    -21.56503791	     46.50812291	     -1.99808420	      0.81171987	      9.17029415	     -7.48536890	     -7.52161476	      4.98070867	     -3.58756101	     -9.55397736	     10.80780505	      8.49639760	      0.18863178	     10.37843221	     36.74687344	     -7.52161476	    -20.90674747	     -4.66140448	     -5.43918321	    -12.20091689	    -12.02259586	    -21.06379963	     78.43982658	     90.00000001	      0.00000000	      0.00000000	      4.49682067	    -26.51755567	     15.11069776	     89.23391957	     90.00000001	      0.00000000	      0.00000000
      2.08000000	      2.06435643	      5.01660720	     15.40519056	      0.44634932	      0.89102470	      0.41672758	     23.61182476	    -15.68597957	    -21.82367872	     43.16240364	     -1.84503831	      0.75332606	      8.70119863	     -6.10151866	     -7.52090146	      4.77346130	     -3.48496167	     -9.33216093	     10.74574135	      8.56098786	      0.18754857	     10.64806922	     36.81189447	     -7.52090146	    -20.98146520	     -4.66913563	     -5.49752128	    -12.01219819	    -11.94769697	    -20.65502852	     77.70803533	     90.00000001	      0.00000000	      0.00000000	      4.82883741	    -26.65926326	     15.35717460	     89.41020061	     90.00000001	      0.00000000	      0.00000000
      2.09000000	      1.76220745	      5.23906565	     15.72859207	      0.45002248	      0.89045188	      0.41711396	     23.41277361	    -15.68011979	    -21.91050582	     40.10067826	     -1.57021394	      0.69988887	      8.21550161	     -4.96563201	     -7.52052189	      4.85538619	     -3.20101449	     -9.07378462	     10.78400360	      8.43130510	      0.18821637	     10.78369528	     36.77696804	     -7.52052189	    -20.83096682	     -4.75577023	     -5.60733355	    -11.99368532	    -11.76861401	    -20.33827225	     77.31102538	     90.00000001	      0.00000000	      0.00000000	      5.05660882	    -26.72968977	     15.53023511	     89.61921067	     90.00000001	      0.00000000	      0.00000000
